<svg width="401.9199951171875px" height="111.239990234375px" xmlns="http://www.w3.org/2000/svg" viewBox="49.040002441406244 19.3800048828125 401.9199951171875 111.239990234375" style="background: rgba(0, 0, 0, 0) none repeat scroll 0% 0%;" preserveAspectRatio="xMidYMid"><defs><filter id="editing-extrude-glow"><feFlood flood-color="#333333" result="flood-1"></feFlood><feMorphology operator="erode" radius="1" in="SourceAlpha" result="erode"></feMorphology><feComposite operator="in" in="flood-1" in2="erode" result="comp1"></feComposite><feConvolveMatrix order="3,3" divisor="1" in="comp1" result="convolve" kernelMatrix="0 0 0 1 1 1 0 0 0"></feConvolveMatrix><feOffset dx="-3" dy="0" in="convolve" result="extrude"></feOffset><feComposite operator="in" in="flood-1" in2="extrude" result="comp-extrude"></feComposite><feFlood flood-color="#000000" result="flood-2"></feFlood><feComposite operator="in" in="flood-2" in2="SourceAlpha" result="comp2"></feComposite><feMorphology operator="dilate" radius="1" in="comp2" result="dilate"></feMorphology><feOffset dx="-4.5" dy="0" in="dilate" result="offset"></feOffset><feGaussianBlur in="offset" stdDeviation="5.8" result="blur"></feGaussianBlur><feComponentTransfer in="blur" result="shadow"><feFuncA type="linear" slope="0.8" intercept="-0.2"></feFuncA></feComponentTransfer><feMerge><feMergeNode in="shadow"></feMergeNode><feMergeNode in="comp-extrude"></feMergeNode><feMergeNode in="SourceGraphic"></feMergeNode></feMerge></filter></defs><g filter="url(#editing-extrude-glow)"><g transform="translate(109.00500297546387, 99)"><path d="M11.39-5.76L12.03-5.76L12.03-22.66L29.25-22.66L29.25-22.66Q32.77-22.66 34.56-21.38L34.56-21.38L34.56-21.38Q36.35-20.10 36.35-17.02L36.35-17.02L36.35-5.76L36.99-5.76L36.99-17.02L36.99-17.02Q36.99-20.35 35.07-21.82L35.07-21.82L35.07-21.82Q33.15-23.30 29.25-23.30L29.25-23.30L26.62-23.30L33.98-40.32L33.28-40.32L25.92-23.30L12.03-23.30L12.03-40.32L11.39-40.32L11.39-5.76ZM16.64 0L16.64 0L6.72 0L6.72 0Q5.50 0 4.96-0.54L4.96-0.54L4.96-0.54Q4.42-1.09 4.42-2.30L4.42-2.30L4.42-43.78L4.42-43.78Q4.42-44.99 4.96-45.54L4.96-45.54L4.96-45.54Q5.50-46.08 6.72-46.08L6.72-46.08L16.64-46.08L16.64-46.08Q17.86-46.08 18.40-45.54L18.40-45.54L18.40-45.54Q18.94-44.99 18.94-43.78L18.94-43.78L18.94-29.06L21.50-29.06L28.10-43.97L28.10-43.97Q28.54-45.12 29.31-45.60L29.31-45.60L29.31-45.60Q30.08-46.08 31.30-46.08L31.30-46.08L41.15-46.08L41.15-46.08Q42.24-46.08 42.62-45.54L42.62-45.54L42.62-45.54Q43.01-44.99 42.56-43.97L42.56-43.97L36.03-29.06L36.03-29.06Q39.62-28.86 41.76-26.53L41.76-26.53L41.76-26.53Q43.90-24.19 43.90-20.35L43.90-20.35L43.90-2.30L43.90-2.30Q43.90-1.09 43.36-0.54L43.36-0.54L43.36-0.54Q42.82 0 41.60 0L41.60 0L31.74 0L31.74 0Q30.53 0 29.98-0.54L29.98-0.54L29.98-0.54Q29.44-1.09 29.44-2.30L29.44-2.30L29.44-14.78L29.44-14.78Q29.44-15.81 28.93-16.38L28.93-16.38L28.93-16.38Q28.42-16.96 27.39-16.96L27.39-16.96L18.94-16.96L18.94-2.30L18.94-2.30Q18.94-1.09 18.40-0.54L18.40-0.54L18.40-0.54Q17.86 0 16.64 0ZM58.62-17.41L58.62-19.39L58.62-19.39Q58.62-21.12 58.91-22.59L58.91-22.59L58.91-22.59Q59.20-24.06 59.65-25.34L59.65-25.34L63.74-35.84L63.74-35.84Q64.38-37.44 65.15-38.56L65.15-38.56L65.15-38.56Q65.92-39.68 67.84-39.68L67.84-39.68L74.11-39.68L74.11-39.68Q75.90-39.68 76.67-38.56L76.67-38.56L76.67-38.56Q77.44-37.44 78.14-35.78L78.14-35.78L82.56-25.34L82.56-25.34Q83.01-24.06 83.30-22.59L83.30-22.59L83.30-22.59Q83.58-21.12 83.58-19.39L83.58-19.39L83.58-17.41L58.62-17.41ZM68.86-32.64L68.86-32.64L65.86-22.91L75.90-22.91L72.90-32.64L72.90-32.64Q72.64-33.22 72.35-33.47L72.35-33.47L72.35-33.47Q72.06-33.73 71.68-33.73L71.68-33.73L70.08-33.73L70.08-33.73Q69.70-33.73 69.41-33.47L69.41-33.47L69.41-33.47Q69.12-33.22 68.86-32.64ZM83.58-16.77L83.58-5.76L84.22-5.76L84.22-19.39L84.22-19.39Q84.22-21.18 83.94-22.69L83.94-22.69L83.94-22.69Q83.65-24.19 83.14-25.60L83.14-25.60L78.72-36.03L78.72-36.03Q77.95-37.89 77.09-39.10L77.09-39.10L77.09-39.10Q76.22-40.32 74.11-40.32L74.11-40.32L67.84-40.32L67.84-40.32Q65.66-40.32 64.77-39.10L64.77-39.10L64.77-39.10Q63.87-37.89 63.17-36.10L63.17-36.10L59.07-25.60L59.07-25.60Q58.56-24.19 58.27-22.69L58.27-22.69L58.27-22.69Q57.98-21.18 57.98-19.39L57.98-19.39L57.98-5.76L58.62-5.76L58.62-16.77L83.58-16.77ZM65.22-11.26L65.22-2.30L65.22-2.30Q65.22-1.09 64.67-0.54L64.67-0.54L64.67-0.54Q64.13 0 62.91 0L62.91 0L53.50 0L53.50 0Q52.29 0 51.74-0.54L51.74-0.54L51.74-0.54Q51.20-1.09 51.20-2.30L51.20-2.30L51.20-19.20L51.20-19.20Q51.20-21.12 51.81-23.62L51.81-23.62L51.81-23.62Q52.42-26.11 53.70-29.44L53.70-29.44L59.26-43.97L59.26-43.97Q59.65-45.06 60.45-45.57L60.45-45.57L60.45-45.57Q61.25-46.08 62.53-46.08L62.53-46.08L79.74-46.08L79.74-46.08Q80.96-46.08 81.76-45.57L81.76-45.57L81.76-45.57Q82.56-45.06 82.94-43.97L82.94-43.97L88.51-29.44L88.51-29.44Q89.79-26.11 90.40-23.62L90.40-23.62L90.40-23.62Q91.01-21.12 91.01-19.20L91.01-19.20L91.01-2.30L91.01-2.30Q91.01-1.09 90.46-0.54L90.46-0.54L90.46-0.54Q89.92 0 88.70 0L88.70 0L79.04 0L79.04 0Q77.76 0 77.15-0.54L77.15-0.54L77.15-0.54Q76.54-1.09 76.54-2.30L76.54-2.30L76.54-11.26L65.22-11.26ZM105.79-40.32L105.79-5.76L106.43-5.76L106.43-22.72L131.01-22.72L131.01-5.76L131.65-5.76L131.65-40.32L131.01-40.32L131.01-23.36L106.43-23.36L106.43-40.32L105.79-40.32ZM111.10 0L111.10 0L101.18 0L101.18 0Q99.97 0 99.42-0.54L99.42-0.54L99.42-0.54Q98.88-1.09 98.88-2.30L98.88-2.30L98.88-43.78L98.88-43.78Q98.88-44.99 99.42-45.54L99.42-45.54L99.42-45.54Q99.97-46.08 101.18-46.08L101.18-46.08L111.10-46.08L111.10-46.08Q112.32-46.08 112.86-45.54L112.86-45.54L112.86-45.54Q113.41-44.99 113.41-43.78L113.41-43.78L113.41-29.89L124.10-29.89L124.10-43.78L124.10-43.78Q124.10-44.99 124.64-45.54L124.64-45.54L124.64-45.54Q125.18-46.08 126.40-46.08L126.40-46.08L136.32-46.08L136.32-46.08Q137.54-46.08 138.08-45.54L138.08-45.54L138.08-45.54Q138.62-44.99 138.62-43.78L138.62-43.78L138.62-2.30L138.62-2.30Q138.62-1.09 138.08-0.54L138.08-0.54L138.08-0.54Q137.54 0 136.32 0L136.32 0L126.40 0L126.40 0Q125.18 0 124.64-0.54L124.64-0.54L124.64-0.54Q124.10-1.09 124.10-2.30L124.10-2.30L124.10-16.51L113.41-16.51L113.41-2.30L113.41-2.30Q113.41-1.09 112.86-0.54L112.86-0.54L112.86-0.54Q112.32 0 111.10 0ZM186.50-33.92L186.50-12.10L186.50-12.10Q186.50-9.15 185.63-6.75L185.63-6.75L185.63-6.75Q184.77-4.35 182.56-2.66L182.56-2.66L182.56-2.66Q180.35-0.96 176.48 0L176.48 0L176.48 0Q172.61 0.96 166.66 0.96L166.66 0.96L166.66 0.96Q160.70 0.96 156.80 0L156.80 0L156.80 0Q152.90-0.96 150.69-2.66L150.69-2.66L150.69-2.66Q148.48-4.35 147.62-6.75L147.62-6.75L147.62-6.75Q146.75-9.15 146.75-12.10L146.75-12.10L146.75-33.92L146.75-33.92Q146.75-36.86 147.62-39.26L147.62-39.26L147.62-39.26Q148.48-41.66 150.69-43.39L150.69-43.39L150.69-43.39Q152.90-45.12 156.80-46.08L156.80-46.08L156.80-46.08Q160.70-47.04 166.66-47.04L166.66-47.04L166.66-47.04Q172.61-47.04 176.48-46.08L176.48-46.08L176.48-46.08Q180.35-45.12 182.56-43.39L182.56-43.39L182.56-43.39Q184.77-41.66 185.63-39.26L185.63-39.26L185.63-39.26Q186.50-36.86 186.50-33.92L186.50-33.92ZM179.52-13.57L179.52-13.57L179.52-32.45L179.52-32.45Q179.52-36.29 176.77-38.69L176.77-38.69L176.77-38.69Q174.02-41.09 166.53-41.09L166.53-41.09L166.53-41.09Q159.04-41.09 156.35-38.69L156.35-38.69L156.35-38.69Q153.66-36.29 153.66-32.45L153.66-32.45L153.66-13.57L153.66-13.57Q153.66-9.73 156.35-7.33L156.35-7.33L156.35-7.33Q159.04-4.93 166.53-4.93L166.53-4.93L166.53-4.93Q174.02-4.93 176.77-7.33L176.77-7.33L176.77-7.33Q179.52-9.73 179.52-13.57ZM154.30-13.57L154.30-13.57L154.30-32.45L154.30-32.45Q154.30-36.03 156.86-38.24L156.86-38.24L156.86-38.24Q159.42-40.45 166.53-40.45L166.53-40.45L166.53-40.45Q173.63-40.45 176.26-38.24L176.26-38.24L176.26-38.24Q178.88-36.03 178.88-32.45L178.88-32.45L178.88-13.57L178.88-13.57Q178.88-9.98 176.26-7.78L176.26-7.78L176.26-7.78Q173.63-5.57 166.53-5.57L166.53-5.57L166.53-5.57Q159.42-5.57 156.86-7.78L156.86-7.78L156.86-7.78Q154.30-9.98 154.30-13.57ZM161.28-31.62L161.28-14.40L161.28-14.40Q161.28-13.12 162.24-12.26L162.24-12.26L162.24-12.26Q163.20-11.39 166.66-11.39L166.66-11.39L166.66-11.39Q170.11-11.39 171.07-12.26L171.07-12.26L171.07-12.26Q172.03-13.12 172.03-14.40L172.03-14.40L172.03-31.62L172.03-31.62Q172.03-32.83 171.07-33.70L171.07-33.70L171.07-33.70Q170.11-34.56 166.66-34.56L166.66-34.56L166.66-34.56Q163.20-34.56 162.24-33.70L162.24-33.70L162.24-33.70Q161.28-32.83 161.28-31.62L161.28-31.62ZM233.66-33.92L233.66-12.10L233.66-12.10Q233.66-9.15 232.80-6.75L232.80-6.75L232.80-6.75Q231.94-4.35 229.73-2.66L229.73-2.66L229.73-2.66Q227.52-0.96 223.65 0L223.65 0L223.65 0Q219.78 0.96 213.82 0.96L213.82 0.96L213.82 0.96Q207.87 0.96 203.97 0L203.97 0L203.97 0Q200.06-0.96 197.86-2.66L197.86-2.66L197.86-2.66Q195.65-4.35 194.78-6.75L194.78-6.75L194.78-6.75Q193.92-9.15 193.92-12.10L193.92-12.10L193.92-33.92L193.92-33.92Q193.92-36.86 194.78-39.26L194.78-39.26L194.78-39.26Q195.65-41.66 197.86-43.39L197.86-43.39L197.86-43.39Q200.06-45.12 203.97-46.08L203.97-46.08L203.97-46.08Q207.87-47.04 213.82-47.04L213.82-47.04L213.82-47.04Q219.78-47.04 223.65-46.08L223.65-46.08L223.65-46.08Q227.52-45.12 229.73-43.39L229.73-43.39L229.73-43.39Q231.94-41.66 232.80-39.26L232.80-39.26L232.80-39.26Q233.66-36.86 233.66-33.92L233.66-33.92ZM226.69-13.57L226.69-13.57L226.69-32.45L226.69-32.45Q226.69-36.29 223.94-38.69L223.94-38.69L223.94-38.69Q221.18-41.09 213.70-41.09L213.70-41.09L213.70-41.09Q206.21-41.09 203.52-38.69L203.52-38.69L203.52-38.69Q200.83-36.29 200.83-32.45L200.83-32.45L200.83-13.57L200.83-13.57Q200.83-9.73 203.52-7.33L203.52-7.33L203.52-7.33Q206.21-4.93 213.70-4.93L213.70-4.93L213.70-4.93Q221.18-4.93 223.94-7.33L223.94-7.33L223.94-7.33Q226.69-9.73 226.69-13.57ZM201.47-13.57L201.47-13.57L201.47-32.45L201.47-32.45Q201.47-36.03 204.03-38.24L204.03-38.24L204.03-38.24Q206.59-40.45 213.70-40.45L213.70-40.45L213.70-40.45Q220.80-40.45 223.42-38.24L223.42-38.24L223.42-38.24Q226.05-36.03 226.05-32.45L226.05-32.45L226.05-13.57L226.05-13.57Q226.05-9.98 223.42-7.78L223.42-7.78L223.42-7.78Q220.80-5.57 213.70-5.57L213.70-5.57L213.70-5.57Q206.59-5.57 204.03-7.78L204.03-7.78L204.03-7.78Q201.47-9.98 201.47-13.57ZM208.45-31.62L208.45-14.40L208.45-14.40Q208.45-13.12 209.41-12.26L209.41-12.26L209.41-12.26Q210.37-11.39 213.82-11.39L213.82-11.39L213.82-11.39Q217.28-11.39 218.24-12.26L218.24-12.26L218.24-12.26Q219.20-13.12 219.20-14.40L219.20-14.40L219.20-31.62L219.20-31.62Q219.20-32.83 218.24-33.70L218.24-33.70L218.24-33.70Q217.28-34.56 213.82-34.56L213.82-34.56L213.82-34.56Q210.37-34.56 209.41-33.70L209.41-33.70L209.41-33.70Q208.45-32.83 208.45-31.62L208.45-31.62ZM263.55 0L263.55 0L253.18 0L253.18 0Q251.97 0 251.42-0.54L251.42-0.54L251.42-0.54Q250.88-1.09 250.88-2.30L250.88-2.30L250.88-33.73L241.47-33.73L241.47-33.73Q240.26-33.73 239.71-34.27L239.71-34.27L239.71-34.27Q239.17-34.82 239.17-36.03L239.17-36.03L239.17-43.78L239.17-43.78Q239.17-44.99 239.71-45.54L239.71-45.54L239.71-45.54Q240.26-46.08 241.47-46.08L241.47-46.08L275.26-46.08L275.26-46.08Q276.48-46.08 277.02-45.54L277.02-45.54L277.02-45.54Q277.57-44.99 277.57-43.78L277.57-43.78L277.57-36.03L277.57-36.03Q277.57-34.82 277.02-34.27L277.02-34.27L277.02-34.27Q276.48-33.73 275.26-33.73L275.26-33.73L265.86-33.73L265.86-2.30L265.86-2.30Q265.86-1.09 265.31-0.54L265.31-0.54L265.31-0.54Q264.77 0 263.55 0ZM258.05-39.68L258.05-5.76L258.69-5.76L258.69-39.68L271.81-39.68L271.81-40.32L244.93-40.32L244.93-39.68L258.05-39.68Z" fill="#eb6c6c"></path></g></g><style>text {
  font-size: 64px;
  font-family: Arial Black;
  dominant-baseline: central;
  text-anchor: middle;
}</style></svg>